# xmcd
#
# Track frame offsets:
#	150
#	12964
#	38217
#	53315
#	67293
#	89789
#	110270
#	124967
#	134190
#	148539
#	172725
#	181879
#	195718
#	225099
#	244501
#
# Disc length: 3406
#
# Revision: 1
# Processed by: cddbd v1.5.1PL0 Copyright (c) Steve Scherf et al.
# Submitted via: CDex 1.51
# Normalized: r0:TDELIM( - )
#
DISCID=cb0d4c0f
DTITLE=Various Artist - Back To The Blues Vol. 2-CD1
DYEAR=1900
DGENRE=Blues
TTITLE0=Gary Moore - Too Tired
TTITLE1=Rory Gallagher - 'Kid' Gloves
TTITLE2=Jethro Tull - Song For Jeffrey
TTITLE3=Canned Heat - Rollin' And Tumblin'
TTITLE4=Bythes Smith - Live On And Sing The Blues
TTITLE5=Rory Block - Got To Shine
TTITLE6=The Siegel-Schwall-Band - Take Out Some Insurance
TTITLE7=The Small Faces - Call It Something Nice
TTITLE8=Eric Burdon Band - It Hurts Me Too
TTITLE9=County Joe McDonald - Power Planet Blues
TTITLE10=The Yardbirds - I Ain't Got You
TTITLE11=T-Bone walker - That Evening Train
TTITLE12=The Holmes Brothers - When Something Is Wrong With My Baby
TTITLE13=Johnny Adams - Baby Please
TTITLE14=Bo Diddley - Bo Diddley
EXTD=
EXTT0=
EXTT1=
EXTT2=
EXTT3=
EXTT4=
EXTT5=
EXTT6=
EXTT7=
EXTT8=
EXTT9=
EXTT10=
EXTT11=
EXTT12=
EXTT13=
EXTT14=
PLAYORDER=
